HIERARCHY
ROOT Hips
{
	OFFSET 0.00000 0.00000 0.00000
	CHANNELS 6 Xposition Yposition Zposition Zrotation Yrotation Xrotation 
	JOINT LHipJoint
	{
		OFFSET 0 0 0
		CHANNELS 3 Zrotation Yrotation Xrotation
		JOINT LeftHip
		{
			OFFSET 1.37590 -1.78394 0.89329
			CHANNELS 3 Zrotation Yrotation Xrotation
			JOINT LeftKnee
			{
				OFFSET 2.47928 -6.81178 0.00000
				CHANNELS 3 Zrotation Yrotation Xrotation
				JOINT LeftAnkle
				{
					OFFSET 2.63345 -7.23535 0.00000
					CHANNELS 3 Zrotation Yrotation Xrotation
					JOINT LeftToe
					{
						OFFSET 0.23938 -0.65768 2.27012
						CHANNELS 3 Zrotation Yrotation Xrotation
						End Site
						{
							OFFSET 0.00000 -0.00000 1.18363
						}
					}
				}
			}
		}
	}
	JOINT RHipJoint
	{
		OFFSET 0 0 0
		CHANNELS 3 Zrotation Yrotation Xrotation
		JOINT RightHip
		{
			OFFSET -1.33617 -1.78394 0.89329
			CHANNELS 3 Zrotation Yrotation Xrotation
			JOINT RightKnee
			{
				OFFSET -2.56922 -7.05888 0.00000
				CHANNELS 3 Zrotation Yrotation Xrotation
				JOINT RightAnkle
				{
					OFFSET -2.56568 -7.04915 0.00000
					CHANNELS 3 Zrotation Yrotation Xrotation
					JOINT RightToe
					{
						OFFSET -0.27533 -0.75646 2.18105
						CHANNELS 3 Zrotation Yrotation Xrotation
						End Site
						{
							OFFSET -0.00000 -0.00000 1.15233
						}
					}
				}
			}
		}
	}
	JOINT lowerback
	{
		OFFSET 0 0 0
		CHANNELS 3 Zrotation Yrotation Xrotation
		JOINT Chest
		{
			OFFSET 0.06190 2.15152 -0.00935
			CHANNELS 3 Zrotation Yrotation Xrotation
			JOINT Chest2
			{
				OFFSET 0.06334 2.15332 0.00872
				CHANNELS 3 Zrotation Yrotation Xrotation
				JOINT lowerneck
				{
					OFFSET 0 0 0
					CHANNELS 3 Zrotation Yrotation Xrotation
					JOINT Neck
					{
						OFFSET -0.04202 1.66908 0.23524
						CHANNELS 3 Zrotation Yrotation Xrotation
						JOINT Head
						{
							OFFSET 0.07510 1.69357 -0.24440
							CHANNELS 3 Zrotation Yrotation Xrotation
							End Site
							{
								OFFSET 0.02556 1.71719 -0.11000
							}
						}
					}
				}
				JOINT LeftCollar
				{
					OFFSET 0 0 0
					CHANNELS 3 Zrotation Yrotation Xrotation
					JOINT LeftShoulder
					{
						OFFSET 3.67168 1.26306 -0.41342
CHANNELS 3 Zrotation Xrotation Yrotation
						JOINT LeftElbow
						{
OFFSET 0 -4.685100 -0.000000
CHANNELS 3 Zrotation Xrotation Yrotation
							JOINT LeftWrist
							{
OFFSET 0 -3.396260 -0.000000
CHANNELS 3 Zrotation Xrotation Yrotation
								JOINT lhand
								{
									OFFSET 0 0 0
CHANNELS 3 Zrotation Xrotation Yrotation
									JOINT LFingers
									{
OFFSET 0 -0.486080 -0.000000
CHANNELS 3 Zrotation Xrotation Yrotation
										End Site
										{
OFFSET 0 -0.391890 -0.000000
										}
									}
								}
								JOINT LThumb
								{
OFFSET 0 0.000000 0.000000
CHANNELS 3 Zrotation Xrotation Yrotation
									End Site
									{
OFFSET 0 -0.397870 0.397870
									}
								}
							}
						}
					}
				}
				JOINT RightCollar
				{
					OFFSET 0 0 0
					CHANNELS 3 Zrotation Yrotation Xrotation
					JOINT RightShoulder
					{
						OFFSET -3.04136 1.42992 -0.76390
CHANNELS 3 Zrotation Xrotation Yrotation
						JOINT RightElbow
						{
OFFSET 0 -5.555760 -0.000000
CHANNELS 3 Zrotation Xrotation Yrotation
							JOINT RightWrist
							{
OFFSET 0 -3.327740 -0.000000
CHANNELS 3 Zrotation Xrotation Yrotation
								JOINT rhand
								{
									OFFSET 0 0 0
CHANNELS 3 Zrotation Xrotation Yrotation
									JOINT RFingers
									{
OFFSET 0 -0.507630 -0.000000
CHANNELS 3 Zrotation Xrotation Yrotation
										End Site
										{
OFFSET 0 -0.409260 -0.000000
										}
									}
								}
								JOINT RThumb
								{
OFFSET 0 0.000000 0.000000
CHANNELS 3 Zrotation Xrotation Yrotation
									End Site
									{
OFFSET 0 -0.415510 0.415510
									}
								}
							}
						}
					}
				}
			}
		}
	}
}
MOTION
Frames: 10
Frame Time: 0.008333333333333333
31.654900 17.531500 6.328000 -113.704000 -89.250200 120.292000 0.000000 0.000000 0.000000 -23.294400 -3.818200 2.783000 0.359600 3.852300 10.661500 0.652200 -4.295200 -14.405200 0.167100 -2.633600 -7.260200 0.000000 0.000000 0.000000 13.296700 8.600000 -30.453600 -0.347400 -3.787100 10.478400 0.907300 -17.377000 -12.123300 -0.006200 -0.509400 1.399800 -0.475500 -0.849700 -0.380700 2.808900 -1.136200 -3.605800 3.194400 -0.537600 -3.430300 -5.263000 -2.749900 -15.258700 7.664100 -3.637000 9.515000 2.943800 -1.417100 5.605600 -0.000000 -0.000000 0.000000 11.282300 -14.542400 -18.051200 22.772400 -33.838900 7.011100 18.136800 22.668600 -20.481600 0.000000 0.000000 0.000000 -7.125000 0.000000 0.000000 -10.470800 51.141200 1.599000 -0.000000 -0.000000 0.000000 -19.411900 -6.364400 9.134300 -20.713500 -31.492400 -5.899500 -20.067100 13.480100 28.611900 0.000000 0.000000 0.000000 7.125000 0.000000 -0.000000 12.273800 59.705000 -4.446900
31.567155 17.517421 6.324396 -108.888487 -89.358729 115.654157 0.000000 0.000000 0.000000 -23.355662 -3.746546 2.887758 0.360354 3.856407 10.672898 0.670135 -4.476641 -14.596781 0.151428 -2.507220 -6.909554 0.000000 0.000000 0.000000 12.681645 9.675403 -30.139578 -0.262588 -3.288955 9.085036 0.911323 -17.689346 -13.161577 -0.001088 -0.035559 0.097701 -0.503827 -0.917667 -0.367794 2.856251 -1.226795 -3.645021 3.262702 -0.581179 -3.471533 -5.430948 -2.760795 -15.315688 7.731983 -3.620406 9.482064 2.994251 -1.409222 5.607863 0.000000 0.000000 0.000000 10.987469 -14.444095 -18.050362 22.920234 -34.001401 7.093649 18.270387 22.699776 -20.623149 0.000000 0.000000 0.000000 -7.125000 0.000000 0.000000 -10.390597 51.307053 1.629086 0.000000 0.000000 0.000000 -19.259959 -6.300875 8.872908 -20.681654 -31.454855 -5.882906 -19.953459 13.329081 28.413866 0.000000 0.000000 0.000000 7.125000 0.000000 0.000000 12.278996 59.481572 -4.383040
31.480424 17.502462 6.319440 -108.951230 -89.451234 115.912825 0.000000 0.000000 0.000000 -23.422266 -3.657650 2.936600 0.364286 3.877078 10.730948 0.694628 -4.605208 -14.860708 0.148941 -2.487127 -6.853970 0.000000 0.000000 0.000000 12.176258 10.533702 -30.111963 -0.212394 -2.962614 8.174967 0.898983 -17.906088 -14.164560 -0.006523 0.445787 -1.225020 -0.509030 -0.877589 -0.620403 2.795827 -1.176687 -3.518794 3.193953 -0.559580 -3.201950 -5.379290 -2.845861 -15.380317 7.789048 -3.740052 9.272794 2.991154 -1.462940 5.561580 0.000000 0.000000 0.000000 10.814679 -14.710966 -18.289955 22.964757 -34.050244 7.118525 18.397822 22.700932 -20.625754 0.000000 0.000000 0.000000 -7.125000 0.000000 0.000000 -10.266717 51.331122 1.615495 0.000000 0.000000 0.000000 -18.934321 -6.342758 8.328151 -20.647846 -31.415011 -5.865298 -19.992487 13.346553 28.371746 0.000000 0.000000 0.000000 7.125000 0.000000 0.000000 12.211103 59.448745 -4.348726
31.394604 17.486830 6.314829 -113.522526 -89.522419 120.659736 0.000000 0.000000 0.000000 -23.493697 -3.533876 2.976832 0.369854 3.906293 10.813130 0.716578 -4.709235 -15.094811 0.152131 -2.513367 -6.926748 0.000000 0.000000 0.000000 12.057996 10.630831 -30.627696 -0.214248 -2.977348 8.215850 0.831974 -17.552268 -14.565611 -0.013199 0.734515 -2.018591 -0.520726 -0.855956 -0.662592 2.774789 -1.148722 -3.514500 3.177016 -0.545817 -3.175489 -5.347536 -2.898403 -15.310463 7.791846 -3.813452 9.139658 2.979550 -1.500455 5.512925 0.000000 0.000000 0.000000 10.552650 -14.694054 -18.469896 22.991219 -34.079168 7.133341 18.457555 22.665743 -20.583768 0.000000 0.000000 0.000000 -7.125000 0.000000 0.000000 -10.193255 51.298505 1.595505 0.000000 0.000000 0.000000 -18.642359 -6.249099 8.008358 -20.556083 -31.306434 -5.817625 -20.289696 13.654378 28.678671 0.000000 0.000000 0.000000 7.125000 0.000000 0.000000 12.070583 59.824071 -4.405302
31.308924 17.471154 6.310568 -120.543614 -89.586361 127.839838 0.000000 0.000000 0.000000 -23.571942 -3.402606 3.030151 0.375795 3.937299 10.900338 0.737064 -4.807118 -15.309465 0.155569 -2.541589 -7.004971 0.000000 0.000000 0.000000 12.085939 10.440705 -31.324984 -0.235457 -3.122629 8.620375 0.748392 -16.981676 -14.658544 -0.019735 0.901668 -2.478291 -0.542503 -0.857310 -0.570902 2.786823 -1.149800 -3.582624 3.205004 -0.544286 -3.297235 -5.362222 -2.927620 -15.189272 7.775622 -3.848053 9.067480 2.973872 -1.522313 5.472601 0.000000 0.000000 0.000000 10.230865 -14.493819 -18.609530 23.030347 -34.121954 7.155312 18.510975 22.615256 -20.566466 0.000000 0.000000 0.000000 -7.125000 0.000000 0.000000 -10.134645 51.289934 1.583956 0.000000 0.000000 0.000000 -18.391648 -6.082910 7.830283 -20.437622 -31.165938 -5.756168 -20.621875 14.006386 29.052827 0.000000 0.000000 0.000000 7.125000 0.000000 0.000000 11.932507 60.274991 -4.483424
31.222759 17.455817 6.306210 -129.538993 -89.650991 136.987825 0.000000 0.000000 0.000000 -23.660233 -3.287879 3.101988 0.381761 3.968036 10.986743 0.759296 -4.902109 -15.539513 0.157466 -2.556810 -7.047231 0.000000 0.000000 0.000000 12.030311 10.423029 -31.889869 -0.249989 -3.215788 8.880199 0.687011 -16.565413 -14.771301 -0.026147 1.044285 -2.870652 -0.569232 -0.851368 -0.517701 2.788590 -1.141569 -3.613630 3.223429 -0.538611 -3.359433 -5.378663 -2.968235 -15.114301 7.776111 -3.897495 8.982260 2.972158 -1.549485 5.437230 0.000000 0.000000 0.000000 9.923986 -14.345701 -18.803406 23.079725 -34.175938 7.183090 18.616987 22.566749 -20.599599 0.000000 0.000000 0.000000 -7.125000 0.000000 0.000000 -10.042299 51.341557 1.582061 0.000000 0.000000 0.000000 -18.131712 -5.948807 7.607057 -20.326834 -31.034044 -5.698889 -20.803260 14.197305 29.242901 0.000000 0.000000 0.000000 7.125000 0.000000 0.000000 11.849242 60.507823 -4.517485
31.136243 17.440492 6.301850 -143.827068 -89.699185 151.410644 0.000000 0.000000 0.000000 -23.761762 -3.173876 3.190874 0.388644 4.003046 11.085308 0.782172 -4.980570 -15.773685 0.160388 -2.580104 -7.111850 0.000000 0.000000 0.000000 12.072874 10.241483 -32.556093 -0.280881 -3.408196 9.417463 0.629464 -16.073084 -14.635274 -0.028843 1.096293 -3.013758 -0.601252 -0.844048 -0.412387 2.793129 -1.130820 -3.655678 3.248975 -0.530912 -3.462571 -5.397799 -3.008298 -15.035356 7.769879 -3.946034 8.917000 2.968943 -1.576566 5.407251 0.000000 0.000000 0.000000 9.597410 -14.136130 -19.024762 23.124142 -34.224359 7.208055 18.736401 22.510641 -20.656543 0.000000 0.000000 0.000000 -7.125000 0.000000 0.000000 -9.945354 51.419589 1.585774 0.000000 0.000000 0.000000 -17.869269 -5.789274 7.432934 -20.196630 -30.878571 -5.631904 -20.960446 14.369949 29.410284 0.000000 0.000000 0.000000 7.125000 0.000000 0.000000 11.779027 60.712685 -4.547844
31.048917 17.425491 6.297408 -163.731913 -89.716449 171.421085 0.000000 0.000000 0.000000 -23.878756 -3.063923 3.317086 0.395851 4.039837 11.188892 0.804967 -5.047616 -16.003566 0.162986 -2.600888 -7.169425 0.000000 0.000000 0.000000 12.172520 9.989980 -33.238026 -0.327561 -3.676795 10.169374 0.587058 -15.591281 -14.274236 -0.027167 1.063609 -2.923917 -0.638210 -0.845473 -0.267319 2.802851 -1.131407 -3.687525 3.283671 -0.528314 -3.576883 -5.427299 -3.043664 -14.977949 7.760409 -3.985423 8.866800 2.967267 -1.599194 5.385126 0.000000 0.000000 0.000000 9.252212 -13.877169 -19.253972 23.163783 -34.267435 7.230347 18.872251 22.455748 -20.755267 0.000000 0.000000 0.000000 -7.125000 0.000000 0.000000 -9.846546 51.543287 1.599770 0.000000 0.000000 0.000000 -17.605530 -5.637920 7.321723 -20.041001 -30.691683 -5.552288 -21.059254 14.492474 29.516132 0.000000 0.000000 0.000000 7.125000 0.000000 0.000000 11.735532 60.842166 -4.566868
30.960322 17.411123 6.292684 -184.270815 -89.702080 192.038107 0.000000 0.000000 0.000000 -24.008571 -2.963832 3.481413 0.403763 4.079235 11.299804 0.827692 -5.102120 -16.230276 0.165584 -2.621460 -7.226577 0.000000 0.000000 0.000000 12.282452 9.749468 -33.865288 -0.384527 -3.978366 11.016252 0.555854 -15.142379 -13.793643 -0.023871 0.996967 -2.740589 -0.677353 -0.851125 -0.105201 2.810247 -1.137347 -3.691402 3.317169 -0.528464 -3.671539 -5.450317 -3.081778 -14.978170 7.748121 -4.028053 8.831113 2.962914 -1.621963 5.377091 0.000000 0.000000 0.000000 8.901730 -13.612994 -19.503966 23.193419 -34.299662 7.247004 19.021486 22.414874 -20.893162 0.000000 0.000000 0.000000 -7.125000 0.000000 0.000000 -9.748443 51.709467 1.623487 0.000000 0.000000 0.000000 -17.330378 -5.513760 7.237072 -19.864167 -30.478235 -5.462386 -21.101630 14.568220 29.558221 0.000000 0.000000 0.000000 7.125000 0.000000 0.000000 11.714721 60.894432 -4.573282
30.870077 17.397527 6.287473 -202.235509 -89.667717 210.055095 0.000000 0.000000 0.000000 -24.141143 -2.871796 3.682046 0.412080 4.120591 11.416282 0.849915 -5.153380 -16.449386 0.168182 -2.642047 -7.283812 0.000000 0.000000 0.000000 12.387822 9.550375 -34.404328 -0.448272 -4.291069 11.897682 0.529323 -14.703512 -13.256638 -0.020701 0.927957 -2.550714 -0.714739 -0.862569 0.062103 2.816552 -1.150814 -3.664260 3.348324 -0.532607 -3.736426 -5.462937 -3.124319 -15.033481 7.731338 -4.076397 8.803603 2.954581 -1.646169 5.380734 0.000000 0.000000 0.000000 8.546719 -13.354179 -19.766743 23.205425 -34.312687 7.253748 19.169190 22.391851 -21.040272 0.000000 0.000000 0.000000 -7.125000 0.000000 0.000000 -9.655140 51.885057 1.649482 0.000000 0.000000 0.000000 -17.043623 -5.415318 7.178128 -19.670183 -30.242715 -5.364349 -21.103305 14.614751 29.553988 0.000000 0.000000 0.000000 7.125000 0.000000 0.000000 11.710148 60.890609 -4.570414
